# xmcd
#
# Track frame offsets:
#	183
#	12158
#	24258
#	36408
#	48108
#	58158
#	67958
#	79483
#	95533
#	105933
#	117308
#	127508
#	138883
#	151083
#	166733
#	181833
#
# Disc length: 2619 seconds
#
# Revision: 1
# Processed by: cddbd v1.5.2PL0 Copyright (c) Steve Scherf et al.
# Submitted via: EZCDAudioConverter 4.0.2.1
#
DISCID=b80a3910
DTITLE=Various Artist - Trucks and Travels - Country Music U.S.A.
DYEAR=1987
DGENRE=Country
TTITLE0=Dave Dudley - Six Days On The Road
TTITLE1=Bobby Bare - Even The Bad Times Are Good
TTITLE2=Dave Dudley - Rodeo Drifter
TTITLE3=Bobby Bare - Alabama Rose
TTITLE4=Dave Dudley - Alligator Man
TTITLE5=Ferlin Husky - Gone
TTITLE6=Dave Dudley - Sentimental Journey
TTITLE7=Bobby Bare - Me And Bobby McGee
TTITLE8=Bobby Rare - Lorena
TTITLE9=Ferlin Husky - My Home Town
TTITLE10=Dave Dudley - Truck Drivin' Son-Of-A-Gun
TTITLE11=David Price - Truck Driver's Waltz
TTITLE12=Rick Pilgreen - How Come It Took So Long To Say Goodbye
TTITLE13=Karen O'Donnell - I Know What It's All About Now, Mama
TTITLE14=Bobby Bare - For The Good Times
TTITLE15=Ferlin Husky - There Goes My Everything
EXTD=
EXTT0=
EXTT1=
EXTT2=
EXTT3=
EXTT4=
EXTT5=
EXTT6=
EXTT7=
EXTT8=
EXTT9=
EXTT10=
EXTT11=
EXTT12=
EXTT13=
EXTT14=
EXTT15=
PLAYORDER=
